<svg xmlns="http://www.w3.org/2000/svg" version="1.1" xmlns:xlink="http://www.w3.org/1999/xlink" xmlns:svgjs="http://svgjs.com/svgjs" viewBox="0 0 140 140" width="140" height="140"><g transform="matrix(5.833333333333333,0,0,5.833333333333333,0,0)"><path d="M17.36,14a4.45,4.45,0,0,1,2.12-3.74,4.6,4.6,0,0,0-3.59-1.95c-1.53-.15-3,.9-3.76.9s-2-.88-3.24-.86a4.81,4.81,0,0,0-4.07,2.46c-1.73,3-.44,7.46,1.25,9.9.82,1.19,1.81,2.53,3.1,2.48s1.72-.8,3.22-.8,1.93.8,3.24.78,2.19-1.22,3-2.41A10.82,10.82,0,0,0,20,18,4.34,4.34,0,0,1,17.36,14Z" fill="none" stroke="#000000" stroke-linecap="round" stroke-linejoin="round" stroke-width="1.5"></path><path d="M15.31,4.36A5,5,0,0,0,16.48.77a5,5,0,0,0-3.31,1.7A4.72,4.72,0,0,0,12,6,4.18,4.18,0,0,0,15.31,4.36Z" fill="none" stroke="#000000" stroke-linecap="round" stroke-linejoin="round" stroke-width="1.5"></path></g></svg>