<svg xmlns="http://www.w3.org/2000/svg" version="1.1" xmlns:xlink="http://www.w3.org/1999/xlink" xmlns:svgjs="http://svgjs.com/svgjs" viewBox="0 0 140 140" width="140" height="140"><g transform="matrix(5.833333333333333,0,0,5.833333333333333,0,0)"><path d="M14.324,21a3.1,3.1,0,0,1-2.25,2.25A3.1,3.1,0,0,1,9.824,21C9.824,19.106,14.324,19.084,14.324,21Z" fill="none" stroke="#000000" stroke-linecap="round" stroke-linejoin="round" stroke-width="1.5"></path><path d="M15.56,18a12.672,12.672,0,0,1,3.264-3.75,3.856,3.856,0,0,1,2.54-.65,1.5,1.5,0,0,0,1.589-1.87A9.06,9.06,0,0,0,19.7,6.61c.433-.538,1.808-2.645-.121-5.86-2.347,0-4.23,2.748-4.94,3.947a16.726,16.726,0,0,0-5.119,0C8.805,3.5,6.922.75,4.574.75c-1.928,3.215-.553,5.322-.12,5.86A9.06,9.06,0,0,0,1.2,11.73,1.5,1.5,0,0,0,2.785,13.6a3.852,3.852,0,0,1,2.539.65A12.661,12.661,0,0,1,8.589,18" fill="none" stroke="#000000" stroke-linecap="round" stroke-linejoin="round" stroke-width="1.5"></path><path d="M7.949,10.125a.374.374,0,0,1,.375.375" fill="none" stroke="#000000" stroke-linecap="round" stroke-linejoin="round" stroke-width="1.5"></path><path d="M7.574,10.5a.375.375,0,0,1,.375-.375" fill="none" stroke="#000000" stroke-linecap="round" stroke-linejoin="round" stroke-width="1.5"></path><path d="M7.949,10.875a.375.375,0,0,1-.375-.375" fill="none" stroke="#000000" stroke-linecap="round" stroke-linejoin="round" stroke-width="1.5"></path><path d="M8.324,10.5a.374.374,0,0,1-.375.375" fill="none" stroke="#000000" stroke-linecap="round" stroke-linejoin="round" stroke-width="1.5"></path><path d="M15.449,10.125a.374.374,0,0,1,.375.375" fill="none" stroke="#000000" stroke-linecap="round" stroke-linejoin="round" stroke-width="1.5"></path><path d="M15.074,10.5a.375.375,0,0,1,.375-.375" fill="none" stroke="#000000" stroke-linecap="round" stroke-linejoin="round" stroke-width="1.5"></path><path d="M15.449,10.875a.375.375,0,0,1-.375-.375" fill="none" stroke="#000000" stroke-linecap="round" stroke-linejoin="round" stroke-width="1.5"></path><path d="M15.824,10.5a.374.374,0,0,1-.375.375" fill="none" stroke="#000000" stroke-linecap="round" stroke-linejoin="round" stroke-width="1.5"></path></g></svg>