<svg xmlns="http://www.w3.org/2000/svg" version="1.1" xmlns:xlink="http://www.w3.org/1999/xlink" xmlns:svgjs="http://svgjs.com/svgjs" viewBox="0 0 140 140" width="140" height="140"><g transform="matrix(5.833333333333333,0,0,5.833333333333333,0,0)"><path d="M17.58,13.29a4.82,4.82,0,0,1,1.94-3.87.5.5,0,0,0,.07-.72A5.16,5.16,0,0,0,16,7h0c-1.69-.16-3.3,1-4.16,1S9.58,7,8.18,7A5.34,5.34,0,0,0,3.67,9.76C1.75,13.1,3.18,18,5,20.74c.91,1.32,2,2.81,3.44,2.76s1.9-.89,3.57-.89,2.14.89,3.6.86S18.08,22.12,19,20.8a12.23,12.23,0,0,0,1.37-2.67.5.5,0,0,0-.23-.61A4.76,4.76,0,0,1,17.58,13.29Z" fill="#000000" stroke="none" stroke-linecap="round" stroke-linejoin="round" stroke-width="0"></path><path d="M15,4.17a5.24,5.24,0,0,0,1.22-3.09.5.5,0,0,0-.6-.51,5.35,5.35,0,0,0-2.81,1.67,5.07,5.07,0,0,0-1.25,3,.5.5,0,0,0,.55.51A4.48,4.48,0,0,0,15,4.17Z" fill="#000000" stroke="none" stroke-linecap="round" stroke-linejoin="round" stroke-width="0"></path></g></svg>