<svg xmlns="http://www.w3.org/2000/svg" version="1.1" xmlns:xlink="http://www.w3.org/1999/xlink" xmlns:svgjs="http://svgjs.com/svgjs" viewBox="0 0 140 140" width="140" height="140"><g transform="matrix(5.833333333333333,0,0,5.833333333333333,0,0)"><path d="M22,9.73l-1.87-.88a.5.5,0,0,0-.55.09l-2.83,2.65a.5.5,0,0,0,0,.73L19.62,15a.5.5,0,0,0,.55.09L22,14.25a2.5,2.5,0,0,0,0-4.53Z" fill="#000000" stroke="none" stroke-linecap="round" stroke-linejoin="round" stroke-width="0"></path><path d="M2.61,22.77,13.73,12.34a.5.5,0,0,0,0-.73L2.5,1.23a2.48,2.48,0,0,0-.74.3A2.49,2.49,0,0,0,.6,3.64v16.7a2.49,2.49,0,0,0,1.16,2.11A2.48,2.48,0,0,0,2.61,22.77Z" fill="#000000" stroke="none" stroke-linecap="round" stroke-linejoin="round" stroke-width="0"></path><path d="M17.79,8.53a.5.5,0,0,0-.13-.82L5.6,2l9.28,8.58a.5.5,0,0,0,.68,0Z" fill="#000000" stroke="none" stroke-linecap="round" stroke-linejoin="round" stroke-width="0"></path><path d="M15.57,13.31a.5.5,0,0,0-.68,0L5.8,21.84l11.93-5.6a.5.5,0,0,0,.13-.82Z" fill="#000000" stroke="none" stroke-linecap="round" stroke-linejoin="round" stroke-width="0"></path></g></svg>