<svg xmlns="http://www.w3.org/2000/svg" version="1.1" xmlns:xlink="http://www.w3.org/1999/xlink" xmlns:svgjs="http://svgjs.com/svgjs" viewBox="0 0 140 140" width="140" height="140"><g transform="matrix(5.833333333333333,0,0,5.833333333333333,0,0)"><path d="M23,0H1A1,1,0,0,0,0,1V23a1,1,0,0,0,1,1H23a1,1,0,0,0,1-1V1A1,1,0,0,0,23,0ZM20.36,5.85,19,7.08a.38.38,0,0,0-.14.36v9.48a.38.38,0,0,0,.14.36l1.35,1.33v.27H14v-.27l1.16-1.36c.13-.13.13-.17.13-.36V10L12.49,17.9v0l-.3,1h-.79c-2.65-5.79-3.49-7.82-4.3-9.21v7l1.64,2v.27H4v-.27l1.6-2v-9L4.36,6.15l0-.53H9.13l3.22,7.71L15,6.06a.75.75,0,0,1,.79-.58h4.58Z" fill="#000000" stroke="none" stroke-linecap="round" stroke-linejoin="round" stroke-width="0"></path></g></svg>