<svg xmlns="http://www.w3.org/2000/svg" version="1.1" xmlns:xlink="http://www.w3.org/1999/xlink" xmlns:svgjs="http://svgjs.com/svgjs" viewBox="0 0 140 140" width="140" height="140"><g transform="matrix(5.833333333333333,0,0,5.833333333333333,0,0)"><path d="M23.772,11.232a10.5,10.5,0,0,0-3.144-3.3,8.609,8.609,0,0,0,.307-5.9A1.595,1.595,0,0,0,18.5,1.119c-1.648,1.106-3.647,2.773-4.229,4.635a18.5,18.5,0,0,0-4.547,0C9.144,3.892,7.145,2.225,5.5,1.119a1.594,1.594,0,0,0-2.432.919,8.6,8.6,0,0,0,.306,5.9,10.518,10.518,0,0,0-3.144,3.3,1.594,1.594,0,0,0,1.335,2.418,5.261,5.261,0,0,1,3.186,1.414A30.841,30.841,0,0,1,9.542,20.2v.488a2.459,2.459,0,1,0,4.917,0V20.2a30.788,30.788,0,0,1,4.792-5.142,5.261,5.261,0,0,1,3.186-1.414,1.595,1.595,0,0,0,1.335-2.416ZM9.077,13.324A1.329,1.329,0,1,1,10.406,12,1.328,1.328,0,0,1,9.077,13.324Zm5.847,0A1.329,1.329,0,1,1,16.253,12,1.328,1.328,0,0,1,14.924,13.324Z" fill="#000000" stroke="none" stroke-linecap="round" stroke-linejoin="round" stroke-width="0"></path></g></svg>