<svg xmlns="http://www.w3.org/2000/svg" version="1.1" xmlns:xlink="http://www.w3.org/1999/xlink" xmlns:svgjs="http://svgjs.com/svgjs" viewBox="0 0 140 140" width="140" height="140"><g transform="matrix(5.833333333333333,0,0,5.833333333333333,0,0)"><path d="M0.74 0.75H23.24V23.25H0.74z" fill="none" stroke="#000000" stroke-linecap="round" stroke-linejoin="round" stroke-width="1.5"></path><path d="M8.56,18.36H3.92L6.2,15.27Z" fill="none" stroke="#000000" stroke-linecap="round" stroke-linejoin="round" stroke-width="1.5"></path><path d="M12.75,14.41,8.88,5.64H4.17V6C7.44,9.95,6.42,8.28,11,18.36h.48l4-12.72h4.33V6L18.5,7.21a.37.37,0,0,0-.14.35v8.87a.37.37,0,0,0,.14.35l1.32,1.57H13.67l1.14-1.6c.13-.13.13-.16.13-.35V7.6" fill="none" stroke="#000000" stroke-linecap="round" stroke-linejoin="round" stroke-width="1.5"></path><path d="M6.2 15.27L6.2 8.48" fill="none" stroke="#000000" stroke-linecap="round" stroke-linejoin="round" stroke-width="1.5"></path></g></svg>