<svg xmlns="http://www.w3.org/2000/svg" version="1.1" xmlns:xlink="http://www.w3.org/1999/xlink" xmlns:svgjs="http://svgjs.com/svgjs" viewBox="0 0 140 140" width="140" height="140"><g transform="matrix(5.833333333333333,0,0,5.833333333333333,0,0)"><path d="M11.244,23.253h-9a1.5,1.5,0,0,1-1.5-1.5V2.253a1.5,1.5,0,0,1,1.5-1.5H12.872a1.5,1.5,0,0,1,1.061.44L19.8,7.064a1.5,1.5,0,0,1,.44,1.061v4.628" fill="none" stroke="#000000" stroke-linecap="round" stroke-linejoin="round" stroke-width="1.5"></path><path d="M20.244,8.253h-6a1.5,1.5,0,0,1-1.5-1.5v-6" fill="none" stroke="#000000" stroke-linecap="round" stroke-linejoin="round" stroke-width="1.5"></path><path d="M14.244 23.253L14.244 15.753" fill="none" stroke="#000000" stroke-linecap="round" stroke-linejoin="round" stroke-width="1.5"></path><path d="M14.244,15.753h1.125a1.875,1.875,0,0,1,0,3.75H14.244" fill="none" stroke="#000000" stroke-linecap="round" stroke-linejoin="round" stroke-width="1.5"></path><path d="M17.244 23.253L14.994 19.503" fill="none" stroke="#000000" stroke-linecap="round" stroke-linejoin="round" stroke-width="1.5"></path><path d="M20.244 23.253L20.244 15.753" fill="none" stroke="#000000" stroke-linecap="round" stroke-linejoin="round" stroke-width="1.5"></path><path d="M20.244,15.753h1.5a1.5,1.5,0,0,1,1.5,1.5V18a1.5,1.5,0,0,1-1.5,1.5h-1.5" fill="none" stroke="#000000" stroke-linecap="round" stroke-linejoin="round" stroke-width="1.5"></path><path d="M20.244,19.5h1.5a1.5,1.5,0,0,1,1.5,1.5v.75a1.5,1.5,0,0,1-1.5,1.5h-1.5" fill="none" stroke="#000000" stroke-linecap="round" stroke-linejoin="round" stroke-width="1.5"></path></g></svg>